<svg width="94" height="24" viewBox="0 0 94 24" fill="none" xmlns="http://www.w3.org/2000/svg">
<rect width="94" height="24" rx="12" fill="#3AA828"/>
<path d="M14.8438 11.7051V13.085H7.91797V11.7051H14.8438ZM8.18164 6.20312V19H6.48535V6.20312H8.18164ZM16.3203 6.20312V19H14.6328V6.20312H16.3203ZM29.1875 12.1973V13.0059C29.1875 13.9668 29.0674 14.8281 28.8271 15.5898C28.5869 16.3516 28.2412 16.999 27.79 17.5322C27.3389 18.0654 26.7969 18.4727 26.1641 18.7539C25.5371 19.0352 24.834 19.1758 24.0547 19.1758C23.2988 19.1758 22.6045 19.0352 21.9717 18.7539C21.3447 18.4727 20.7998 18.0654 20.3369 17.5322C19.8799 16.999 19.5254 16.3516 19.2734 15.5898C19.0215 14.8281 18.8955 13.9668 18.8955 13.0059V12.1973C18.8955 11.2363 19.0186 10.3779 19.2646 9.62207C19.5166 8.86035 19.8711 8.21289 20.3281 7.67969C20.7852 7.14063 21.3271 6.73047 21.9541 6.44922C22.5869 6.16797 23.2812 6.02734 24.0371 6.02734C24.8164 6.02734 25.5195 6.16797 26.1465 6.44922C26.7793 6.73047 27.3213 7.14063 27.7725 7.67969C28.2295 8.21289 28.5781 8.86035 28.8184 9.62207C29.0645 10.3779 29.1875 11.2363 29.1875 12.1973ZM27.5088 13.0059V12.1797C27.5088 11.418 27.4297 10.7441 27.2715 10.1582C27.1191 9.57227 26.8936 9.08008 26.5947 8.68164C26.2959 8.2832 25.9297 7.98145 25.4961 7.77637C25.0684 7.57129 24.582 7.46875 24.0371 7.46875C23.5098 7.46875 23.0322 7.57129 22.6045 7.77637C22.1826 7.98145 21.8193 8.2832 21.5146 8.68164C21.2158 9.08008 20.9844 9.57227 20.8203 10.1582C20.6562 10.7441 20.5742 11.418 20.5742 12.1797V13.0059C20.5742 13.7734 20.6562 14.4531 20.8203 15.0449C20.9844 15.6309 21.2188 16.126 21.5234 16.5303C21.834 16.9287 22.2002 17.2305 22.6221 17.4355C23.0498 17.6406 23.5273 17.7432 24.0547 17.7432C24.6055 17.7432 25.0947 17.6406 25.5225 17.4355C25.9502 17.2305 26.3105 16.9287 26.6035 16.5303C26.9023 16.126 27.1279 15.6309 27.2803 15.0449C27.4326 14.4531 27.5088 13.7734 27.5088 13.0059ZM36.2891 13.0146H33.0459L33.0283 11.6523H35.9727C36.459 11.6523 36.8838 11.5703 37.2471 11.4062C37.6104 11.2422 37.8916 11.0078 38.0908 10.7031C38.2959 10.3926 38.3984 10.0234 38.3984 9.5957C38.3984 9.12695 38.3076 8.74609 38.126 8.45312C37.9502 8.1543 37.6777 7.9375 37.3086 7.80273C36.9453 7.66211 36.4824 7.5918 35.9199 7.5918H33.4238V19H31.7275V6.20312H35.9199C36.5762 6.20312 37.1621 6.27051 37.6777 6.40527C38.1934 6.53418 38.6299 6.73926 38.9873 7.02051C39.3506 7.2959 39.626 7.64746 39.8135 8.0752C40.001 8.50293 40.0947 9.01562 40.0947 9.61328C40.0947 10.1406 39.96 10.6182 39.6904 11.0459C39.4209 11.4678 39.0459 11.8135 38.5654 12.083C38.0908 12.3525 37.5342 12.5254 36.8955 12.6016L36.2891 13.0146ZM36.21 19H32.3779L33.3359 17.6201H36.21C36.749 17.6201 37.2061 17.5264 37.5811 17.3389C37.9619 17.1514 38.252 16.8877 38.4512 16.5479C38.6504 16.2021 38.75 15.7949 38.75 15.3262C38.75 14.8516 38.665 14.4414 38.4951 14.0957C38.3252 13.75 38.0586 13.4834 37.6953 13.2959C37.332 13.1084 36.8633 13.0146 36.2891 13.0146H33.8721L33.8896 11.6523H37.1943L37.5547 12.1445C38.1699 12.1973 38.6914 12.373 39.1191 12.6719C39.5469 12.9648 39.8721 13.3398 40.0947 13.7969C40.3232 14.2539 40.4375 14.7578 40.4375 15.3086C40.4375 16.1055 40.2617 16.7793 39.9102 17.3301C39.5645 17.875 39.0752 18.291 38.4424 18.5781C37.8096 18.8594 37.0654 19 36.21 19ZM44.709 16.0645L51.0107 6.20312H52.707V19H51.0107V9.12988L44.709 19H43.0215V6.20312H44.709V16.0645ZM55.3877 6.20312H57.084V10.2021C57.084 10.8643 57.1807 11.3828 57.374 11.7578C57.5674 12.1328 57.8604 12.3965 58.2529 12.5488C58.6455 12.7012 59.1348 12.7773 59.7207 12.7773C60.0723 12.7773 60.4121 12.7627 60.7402 12.7334C61.0742 12.7041 61.3994 12.6631 61.7158 12.6104C62.0322 12.5576 62.3428 12.4932 62.6475 12.417C62.958 12.3408 63.2627 12.2588 63.5615 12.1709V13.5596C63.2744 13.6475 62.9873 13.7295 62.7002 13.8057C62.4189 13.8818 62.126 13.9463 61.8213 13.999C61.5225 14.0518 61.2002 14.0928 60.8545 14.1221C60.5146 14.1514 60.1367 14.166 59.7207 14.166C58.8184 14.166 58.042 14.0371 57.3916 13.7793C56.7471 13.5156 56.252 13.0938 55.9062 12.5137C55.5605 11.9336 55.3877 11.1631 55.3877 10.2021V6.20312ZM63.1309 6.20312H64.8271V19H63.1309V6.20312ZM77.7207 12.1973V13.0059C77.7207 13.9668 77.6006 14.8281 77.3604 15.5898C77.1201 16.3516 76.7744 16.999 76.3232 17.5322C75.8721 18.0654 75.3301 18.4727 74.6973 18.7539C74.0703 19.0352 73.3672 19.1758 72.5879 19.1758C71.832 19.1758 71.1377 19.0352 70.5049 18.7539C69.8779 18.4727 69.333 18.0654 68.8701 17.5322C68.4131 16.999 68.0586 16.3516 67.8066 15.5898C67.5547 14.8281 67.4287 13.9668 67.4287 13.0059V12.1973C67.4287 11.2363 67.5518 10.3779 67.7979 9.62207C68.0498 8.86035 68.4043 8.21289 68.8613 7.67969C69.3184 7.14063 69.8604 6.73047 70.4873 6.44922C71.1201 6.16797 71.8145 6.02734 72.5703 6.02734C73.3496 6.02734 74.0527 6.16797 74.6797 6.44922C75.3125 6.73047 75.8545 7.14063 76.3057 7.67969C76.7627 8.21289 77.1113 8.86035 77.3516 9.62207C77.5977 10.3779 77.7207 11.2363 77.7207 12.1973ZM76.042 13.0059V12.1797C76.042 11.418 75.9629 10.7441 75.8047 10.1582C75.6523 9.57227 75.4268 9.08008 75.1279 8.68164C74.8291 8.2832 74.4629 7.98145 74.0293 7.77637C73.6016 7.57129 73.1152 7.46875 72.5703 7.46875C72.043 7.46875 71.5654 7.57129 71.1377 7.77637C70.7158 7.98145 70.3525 8.2832 70.0479 8.68164C69.749 9.08008 69.5176 9.57227 69.3535 10.1582C69.1895 10.7441 69.1074 11.418 69.1074 12.1797V13.0059C69.1074 13.7734 69.1895 14.4531 69.3535 15.0449C69.5176 15.6309 69.752 16.126 70.0566 16.5303C70.3672 16.9287 70.7334 17.2305 71.1553 17.4355C71.583 17.6406 72.0605 17.7432 72.5879 17.7432C73.1387 17.7432 73.6279 17.6406 74.0557 17.4355C74.4834 17.2305 74.8438 16.9287 75.1367 16.5303C75.4355 16.126 75.6611 15.6309 75.8135 15.0449C75.9658 14.4531 76.042 13.7734 76.042 13.0059ZM82.0361 6.20312V19H80.3398V6.20312H82.0361ZM89.9199 6.20312L84.3652 13.2432H81.3594L81.0957 11.8369H83.3545L87.8193 6.20312H89.9199ZM88.2148 19L83.4072 13.0234L84.3564 11.5381L90.2891 19H88.2148Z" fill="white"/>
</svg>
